<svg version="1.1" id="Layer_1" xmlns="http://www.w3.org/2000/svg" xmlns:xlink="http://www.w3.org/1999/xlink" x="0px" y="0px"
	 width="100%" viewBox="0 0 500 500" enable-background="new 0 0 500 500" xml:space="preserve">
<path fill="#000000" opacity="1.000000" stroke="none" 
	d="
M265.000000,501.000000 
	C176.666687,501.000000 88.833374,501.000000 1.000047,501.000000 
	C1.000031,334.333405 1.000031,167.666794 1.000016,1.000137 
	C167.666565,1.000091 334.333130,1.000091 500.999756,1.000046 
	C500.999847,167.666519 500.999847,334.333038 500.999939,500.999786 
	C422.500000,501.000000 344.000000,501.000000 265.000000,501.000000 
M334.042725,198.033066 
	C334.042725,198.033066 334.074036,198.024231 334.633575,197.846558 
	C335.031189,197.226883 335.428833,196.607193 336.128113,195.373642 
	C337.992767,193.475021 340.153625,191.786606 341.674377,189.643890 
	C352.135376,174.904633 362.395874,159.962250 368.856873,142.970596 
	C372.292053,133.936401 375.659882,124.505478 376.648010,115.003021 
	C377.971619,102.273705 373.306244,90.344429 364.906158,80.672760 
	C356.596619,71.105400 346.291260,64.222038 332.793060,62.323471 
	C331.873291,62.279339 330.953522,62.235203 329.182312,62.042084 
	C327.457977,62.089741 325.733673,62.137394 323.105621,62.040840 
	C304.252716,62.556141 289.653748,70.911201 279.300659,86.463211 
	C273.400696,95.325912 271.681732,105.686058 272.248291,115.996544 
	C272.843628,126.831413 277.723663,136.688614 282.736572,146.150192 
	C289.355957,158.643936 296.032257,171.185349 303.816650,182.957336 
	C309.207275,191.109329 316.522858,197.985931 322.950226,205.456604 
	C324.547943,207.313675 325.882477,207.426651 327.558228,204.926804 
	C327.742096,204.640106 327.925964,204.353409 328.644348,203.859634 
	C329.102661,203.265106 329.560974,202.670563 330.058044,202.056747 
	C330.058044,202.056747 330.077026,202.017822 330.664612,201.837708 
	C331.446167,200.917542 332.227692,199.997375 333.052673,199.059677 
	C333.052673,199.059677 333.068115,199.015488 333.560516,198.909927 
	C333.716797,198.627518 333.873108,198.345123 334.042725,198.033066 
M300.912109,303.106018 
	C300.606720,298.052185 300.301331,292.998383 300.002686,287.017822 
	C298.644043,253.906296 296.644897,220.846542 292.068420,187.336685 
	C292.040039,186.893463 292.011627,186.450226 291.985474,185.235474 
	C291.659149,183.491287 291.332794,181.747101 291.070312,179.337738 
	C291.041718,178.893967 291.013123,178.450195 290.988800,177.260971 
	C290.642761,175.833237 290.296722,174.405518 290.048218,172.237717 
	C290.030243,171.492676 290.012299,170.747635 290.000214,169.223373 
	C289.636658,167.479996 289.273071,165.736618 288.702545,163.318298 
	C286.777191,157.841644 283.277710,153.589813 278.102142,151.063705 
	C266.451416,145.377197 254.705276,139.883255 242.924423,134.470978 
	C241.786301,133.948120 240.041733,134.253036 238.734985,134.667038 
	C227.910736,138.096375 217.762772,138.204254 208.921326,129.608521 
	C208.046204,128.757721 205.646515,128.645477 204.369553,129.180771 
	C198.757141,131.533401 193.297211,134.249847 187.057953,136.991241 
	C180.881516,138.403839 177.199188,142.135284 175.942917,148.432053 
	C174.075745,157.790710 171.827393,167.075806 170.083069,176.455765 
	C168.512619,184.900757 167.402145,193.431290 166.019501,202.791382 
	C165.681610,205.390823 165.310547,207.986435 165.011581,210.590347 
	C163.707138,221.951416 168.313065,232.242737 170.769531,242.945084 
	C173.749908,255.929886 176.216522,269.032104 179.103638,282.039520 
	C179.420929,283.469025 180.784134,285.153442 182.106323,285.775238 
	C185.215652,287.237427 188.593750,288.128082 191.957794,290.151154 
	C191.972107,300.433838 191.986420,310.716492 191.232849,320.958221 
	C182.732513,325.212738 174.178772,329.365570 165.764908,333.784729 
	C163.294266,335.082306 161.220276,337.135132 158.346008,339.140533 
	C156.520630,340.751251 154.695267,342.361938 152.158600,343.987579 
	C147.761246,348.281982 143.363892,352.576416 138.318848,357.153625 
	C137.834106,358.423370 137.349365,359.693146 136.199844,361.240631 
	C135.789139,362.792114 135.378448,364.343628 134.261978,366.236237 
	C134.831512,369.193329 135.401047,372.150452 135.974518,375.978638 
	C136.066727,378.272552 135.458405,380.900635 136.366974,382.805084 
	C141.533630,393.634857 148.684235,402.747131 160.682526,408.085358 
	C163.776169,409.330811 166.869812,410.576263 170.410202,411.989105 
	C170.410202,411.989105 170.879776,412.073273 170.987900,412.785675 
	C172.511353,414.144440 173.828857,415.931305 175.596802,416.781830 
	C180.968567,419.366119 186.514404,421.588562 191.993988,424.632721 
	C191.992752,425.086609 191.991531,425.540466 191.934372,426.647278 
	C192.261093,427.172546 192.587814,427.697815 193.293869,428.656525 
	C193.844971,428.770081 194.396072,428.883636 195.315903,429.648010 
	C201.764420,431.205719 208.252396,432.617584 214.653503,434.350433 
	C229.542999,438.381256 244.840775,438.059723 260.887207,439.006500 
	C271.070465,439.664215 281.284302,441.165314 291.430420,440.797668 
	C310.421509,440.109497 329.419037,438.784058 348.324097,436.847137 
	C359.313477,435.721252 370.128296,432.891205 381.811157,430.927307 
	C384.976959,430.233704 388.209961,429.759003 391.297729,428.811188 
	C412.448730,422.318695 432.741028,413.791016 452.691406,402.803192 
	C456.996765,399.442474 461.962372,396.729645 464.759735,390.853973 
	C468.762451,382.422150 467.611664,374.163605 463.894440,365.301514 
	C458.945496,360.174072 453.996582,355.046600 448.756653,349.306213 
	C446.194794,347.522644 443.632904,345.739075 440.944000,343.410034 
	C440.624634,343.340759 440.305298,343.271454 439.515717,343.090424 
	C439.515717,343.090424 439.045258,342.979858 438.838928,342.314148 
	C430.391663,334.512939 420.377258,329.241028 409.830231,325.068878 
	C403.618988,322.611847 397.097748,320.796844 390.577850,319.290771 
	C376.279205,315.987701 361.914398,312.958374 347.533386,310.029694 
	C339.775146,308.449768 331.927765,307.307709 323.698730,305.204346 
	C316.130402,304.816895 308.562073,304.429413 300.912109,303.106018 
M198.077820,57.963882 
	C197.709976,64.058395 196.541748,70.236916 197.170380,76.226845 
	C198.017059,84.294502 197.616486,92.857880 202.484802,100.045685 
	C204.412842,102.892303 207.971954,105.133690 208.736893,108.167854 
	C210.502090,115.169502 215.944855,117.362000 221.391602,119.604912 
	C235.362823,125.358086 250.381943,117.407524 253.646072,102.824844 
	C253.880234,101.778664 254.370224,100.425720 255.178391,99.934334 
	C258.909882,97.665504 259.984375,94.227875 259.992706,90.207024 
	C260.005096,84.211441 259.828613,78.208359 260.098389,72.224968 
	C260.173920,70.548920 261.171661,68.576210 262.371033,67.351189 
	C266.296112,63.342209 267.654663,58.805191 266.633270,53.292675 
	C265.444275,53.175743 264.547852,52.831375 263.831573,53.057545 
	C257.915161,54.925674 254.426682,52.283710 252.062637,47.097744 
	C251.656479,46.206753 250.540726,45.208504 249.617737,45.050945 
	C241.056122,43.589451 232.495651,41.505329 223.874191,41.172371 
	C213.960632,40.789513 200.818314,47.761147 198.077820,57.963882 
z"/>
<path fill="#F48302" opacity="1.000000" stroke="none" 
	d="
M166.088776,201.924103 
	C167.402145,193.431290 168.512619,184.900757 170.083069,176.455765 
	C171.827393,167.075806 174.075745,157.790710 175.942917,148.432053 
	C177.199188,142.135284 180.881516,138.403839 187.823364,136.956329 
	C194.469711,138.594650 200.344528,140.289688 206.232727,141.936905 
	C221.819214,146.297165 237.411499,150.636703 252.999634,155.240265 
	C252.994415,155.666489 252.991058,155.836945 252.625046,156.045471 
	C247.105698,158.051331 241.732529,159.833145 241.028641,166.532242 
	C240.597305,170.637299 240.173721,174.755264 240.036224,178.877090 
	C239.306931,200.742264 238.616928,222.609085 238.029938,244.478470 
	C237.838135,251.624161 238.192276,258.785919 237.948242,265.928436 
	C237.614349,275.700867 234.088272,278.070465 224.573380,276.428436 
	C214.314911,274.658173 204.593323,271.867249 196.005341,265.706818 
	C192.467850,263.169312 188.836472,264.001526 185.371246,266.339874 
	C182.305573,268.408569 181.517212,270.855865 182.786911,274.451874 
	C183.468872,276.383331 182.969650,278.731812 182.610367,280.873474 
	C181.555038,278.442932 180.360703,276.041046 180.315262,273.617615 
	C179.975067,255.471649 180.027023,237.317764 179.623932,219.173752 
	C179.315308,205.282043 179.099533,205.286835 166.088776,201.924103 
z"/>
<path fill="#2E3A3C" opacity="1.000000" stroke="none" 
	d="
M191.990295,425.994354 
	C191.991531,425.540466 191.992752,425.086609 191.993713,423.854675 
	C191.946609,421.032837 191.899765,418.989075 191.924088,416.488281 
	C191.925537,411.664795 191.855835,407.298279 191.876419,402.494385 
	C191.950546,399.374054 191.934372,396.691071 191.992126,393.557861 
	C192.008682,390.065613 191.951309,387.023621 191.956207,383.543457 
	C191.960266,380.751923 191.902054,378.398590 191.932587,375.618652 
	C191.980988,373.454712 191.940628,371.717346 191.961182,369.527832 
	C192.006042,365.739960 191.990021,362.404266 191.982269,358.783600 
	C191.984558,358.308716 191.978577,358.118774 191.997009,357.565552 
	C191.969772,356.478760 191.918121,355.755219 191.941498,354.603821 
	C191.971024,352.442474 191.925552,350.708984 191.950562,348.545776 
	C191.962311,346.091431 191.903549,344.066711 191.927017,341.577209 
	C192.006409,334.407959 192.003571,327.703583 192.000732,320.999176 
	C191.986420,310.716492 191.972107,300.433838 192.085785,289.360046 
	C194.241348,287.663300 196.268921,286.757629 198.496094,285.862274 
	C198.695694,285.872559 199.027847,286.097321 199.226166,286.334412 
	C200.021179,286.683838 200.617889,286.796234 201.431274,286.900146 
	C201.647949,286.891693 202.028900,287.098999 202.227692,287.335571 
	C203.023544,287.683044 203.620605,287.793915 204.433411,287.894775 
	C204.649170,287.884705 205.028458,288.091461 205.225555,288.329224 
	C206.018539,288.679413 206.614426,288.791870 207.589203,288.906433 
	C220.646713,292.929810 233.325333,296.951019 246.147369,301.074402 
	C246.290771,301.176544 246.637421,301.114532 246.925690,301.373901 
	C250.431534,301.628448 253.649124,301.623627 257.149414,301.718628 
	C257.613312,301.902740 257.794525,301.987091 257.967163,302.503540 
	C258.046082,304.663422 258.133514,306.391174 258.211975,308.565704 
	C258.363892,311.382233 258.524780,313.752014 258.561340,316.505737 
	C258.503815,318.222107 258.570618,319.554474 258.495178,321.308868 
	C258.443726,323.201630 258.534515,324.672394 258.520508,326.542175 
	C258.489838,328.581512 258.563934,330.221832 258.498199,332.309174 
	C258.517456,335.233643 258.676514,337.711060 258.668060,340.611816 
	C258.570160,345.639893 258.639801,350.244598 258.559479,355.280579 
	C258.491882,357.521515 258.574249,359.331207 258.550781,361.540619 
	C258.544189,363.580505 258.643372,365.220673 258.554749,367.290283 
	C258.453827,370.513550 258.540710,373.307404 258.521790,376.552185 
	C258.493011,386.966858 258.569977,396.930664 258.490509,407.252441 
	C258.403778,408.646088 258.473511,409.681732 258.426758,411.167419 
	C259.089478,414.582825 255.516891,419.434937 261.874725,419.982819 
	C270.168884,420.697571 273.031555,422.449463 272.938934,426.876373 
	C272.841675,431.524658 269.817505,433.580750 261.547913,434.222168 
	C255.424118,434.100372 249.762909,434.108429 244.103470,434.012329 
	C237.512009,433.900391 235.070938,431.434265 235.042297,424.984558 
	C235.018677,419.659668 235.018829,414.334686 235.028503,408.541901 
	C234.984818,402.729584 234.921066,397.385101 234.944733,391.577179 
	C234.970993,385.394806 234.909851,379.675903 234.932098,373.502075 
	C234.905304,368.731415 234.795105,364.415649 234.774078,359.737671 
	C234.778534,357.705536 234.693817,356.035583 234.654633,353.885498 
	C234.423477,349.951721 234.146790,346.498138 233.938354,342.603638 
	C233.708984,339.102173 233.411331,336.041626 233.178757,332.549927 
	C233.118729,330.091125 232.993637,328.063538 232.928940,325.645630 
	C232.754913,323.484955 232.520462,321.714539 232.342865,319.557556 
	C231.155579,317.609344 230.232071,315.348206 228.612411,314.605774 
	C221.154648,311.187256 215.547546,315.284851 215.311371,324.323914 
	C215.172745,326.170959 215.162140,327.605560 215.074005,329.451538 
	C214.845200,332.532867 214.693893,335.202850 214.368622,338.213440 
	C214.214645,339.059143 214.234650,339.564240 214.165619,340.493286 
	C213.781509,344.258881 213.486404,347.600433 213.091125,351.352325 
	C212.891418,353.445221 212.791885,355.127838 212.407135,357.134766 
	C212.110794,363.630493 212.099670,369.801910 211.983917,376.433594 
	C211.918869,383.926910 211.958481,390.959991 211.908417,398.435791 
	C211.886185,401.578094 211.953644,404.277710 211.949692,407.429077 
	C211.491852,412.521790 211.044724,416.740784 218.160324,416.394165 
	C221.610901,416.226105 222.916321,419.844513 222.685364,423.040833 
	C222.442917,426.396301 221.082504,429.212524 216.912674,429.166718 
	C209.591095,429.086273 202.269028,429.051239 194.947159,428.997192 
	C194.396072,428.883636 193.844971,428.770081 193.117401,428.112366 
	C192.624069,427.043610 192.307190,426.518982 191.990295,425.994354 
z"/>
<path fill="#BBDBDA" opacity="1.000000" stroke="none" 
	d="
M258.543243,410.717407 
	C258.473511,409.681732 258.403778,408.646088 258.843689,407.277008 
	C260.618286,406.615479 261.949615,406.442902 263.138153,405.935760 
	C279.335052,399.024475 295.517273,392.078644 311.688385,385.107178 
	C313.942596,384.135406 316.118256,382.981323 319.334045,381.426239 
	C307.069885,379.505035 296.166992,377.325043 285.156189,376.221924 
	C276.381409,375.342804 267.470062,370.810638 258.627563,376.101257 
	C258.540710,373.307404 258.453827,370.513550 258.951721,367.302643 
	C276.113892,369.115295 292.682495,371.414124 309.275238,373.523376 
	C313.148346,374.015686 317.434875,374.913696 320.954590,373.801025 
	C329.484894,371.104401 337.618866,367.182709 346.014069,364.024414 
	C369.313568,355.259033 392.664825,346.631165 416.363037,337.926483 
	C418.870819,337.174683 421.011139,336.445343 423.151489,335.716034 
	C423.119507,335.376251 423.087494,335.036469 423.055511,334.696686 
	C420.399841,334.066681 417.744171,333.436646 414.835632,332.567444 
	C412.770264,331.849365 410.957764,331.370483 408.900482,330.631256 
	C406.665955,329.564636 404.742828,328.461548 402.676178,327.997711 
	C380.382324,322.993683 358.180878,317.447357 335.707520,313.428345 
	C324.328522,311.393402 312.883575,307.169586 300.726074,309.743011 
	C300.544006,307.947418 300.564514,306.527679 300.754333,305.087463 
	C300.923615,305.066986 301.251099,304.970612 301.684814,304.987061 
	C309.452545,305.325012 316.786560,305.646576 324.120605,305.968109 
	C331.927765,307.307709 339.775146,308.449768 347.533386,310.029694 
	C361.914398,312.958374 376.279205,315.987701 390.577850,319.290771 
	C397.097748,320.796844 403.618988,322.611847 409.830231,325.068878 
	C420.377258,329.241028 430.391663,334.512939 438.554871,342.670166 
	C431.227997,338.652496 424.542114,340.900452 417.559570,343.621735 
	C394.059143,352.780487 370.423859,361.592468 346.876831,370.632629 
	C343.156433,372.061005 339.625732,373.983398 336.007324,375.677368 
	C336.114929,376.158386 336.222534,376.639435 336.330139,377.120483 
	C342.767090,378.289551 348.796906,381.432373 355.878571,378.983490 
	C373.902588,372.750671 392.341766,367.604553 410.033722,360.563538 
	C422.836609,355.468231 435.202118,356.287140 448.036163,358.441437 
	C449.682343,358.717773 451.464294,358.185181 453.427826,358.250122 
	C455.112701,361.647675 456.553131,364.822449 457.998901,368.458496 
	C457.304199,374.594543 456.604156,380.269287 455.617432,386.113037 
	C452.841919,389.772400 450.353088,393.262848 447.530457,396.850403 
	C442.115387,400.279572 437.034119,403.611633 431.720459,406.667999 
	C430.550262,406.057556 429.635559,405.620209 428.671326,405.402924 
	C399.894135,398.917908 371.124939,392.395966 342.315491,386.057007 
	C338.402313,385.196014 333.684418,383.794891 330.358124,385.148315 
	C309.459167,393.651581 288.848724,402.863892 267.733490,411.889343 
	C264.397156,411.530457 261.470184,411.123932 258.543243,410.717407 
z"/>
<path fill="#2E3B3C" opacity="1.000000" stroke="none" 
	d="
M198.209000,57.576851 
	C200.818314,47.761147 213.960632,40.789513 223.874191,41.172371 
	C232.495651,41.505329 241.056122,43.589451 249.617737,45.050945 
	C250.540726,45.208504 251.656479,46.206753 252.062637,47.097744 
	C254.426682,52.283710 257.915161,54.925674 263.831573,53.057545 
	C264.547852,52.831375 265.444275,53.175743 266.633270,53.292675 
	C267.654663,58.805191 266.296112,63.342209 262.371033,67.351189 
	C261.171661,68.576210 260.173920,70.548920 260.098389,72.224968 
	C259.828613,78.208359 260.005096,84.211441 259.992706,90.207024 
	C259.984375,94.227875 258.909882,97.665504 255.178391,99.934334 
	C254.370224,100.425720 253.880234,101.778664 253.646072,102.824844 
	C250.381943,117.407524 235.362823,125.358086 221.391602,119.604912 
	C215.944855,117.362000 210.502090,115.169502 208.736893,108.167854 
	C207.971954,105.133690 204.412842,102.892303 202.484802,100.045685 
	C197.616486,92.857880 198.017059,84.294502 197.170380,76.226845 
	C196.541748,70.236916 197.709976,64.058395 198.209000,57.576851 
z"/>
<path fill="#FB7003" opacity="1.000000" stroke="none" 
	d="
M333.112274,62.955082 
	C346.291260,64.222038 356.596619,71.105400 364.906158,80.672760 
	C373.306244,90.344429 377.971619,102.273705 376.648010,115.003021 
	C375.659882,124.505478 372.292053,133.936401 368.856873,142.970596 
	C362.395874,159.962250 352.135376,174.904633 341.674377,189.643890 
	C340.153625,191.786606 337.992767,193.475021 335.671204,195.733521 
	C334.834198,196.737015 334.454102,197.380615 334.074036,198.024231 
	C334.074036,198.024231 334.042725,198.033066 333.811096,198.131699 
	C333.293427,198.416718 333.122955,198.678436 333.068115,199.015488 
	C333.068115,199.015488 333.052673,199.059677 332.686859,199.067993 
	C331.573059,200.056808 330.825043,201.037323 330.077026,202.017822 
	C330.077026,202.017822 330.058044,202.056747 329.708893,202.079559 
	C328.943115,202.757156 328.526489,203.411926 328.109863,204.066711 
	C327.925964,204.353409 327.742096,204.640106 326.898315,204.955902 
	C325.489624,203.276001 324.102844,201.571915 324.089691,199.857300 
	C323.939789,180.297455 323.999268,160.736008 324.394470,141.102051 
	C326.769440,140.359955 328.732513,139.184479 330.739441,139.104141 
	C343.336823,138.599792 351.574677,123.428162 352.083710,114.187035 
	C352.948853,98.481339 340.942352,86.170937 324.952423,85.389969 
	C324.589996,77.388199 324.299683,69.786621 324.009338,62.185051 
	C325.733673,62.137394 327.457977,62.089741 329.846100,62.346260 
	C331.377350,62.751984 332.244812,62.853535 333.112274,62.955082 
z"/>
<path fill="#F58904" opacity="1.000000" stroke="none" 
	d="
M324.002838,141.174988 
	C323.999268,160.736008 323.939789,180.297455 324.089691,199.857300 
	C324.102844,201.571915 325.489624,203.276001 326.652283,205.044586 
	C325.882477,207.426651 324.547943,207.313675 322.950226,205.456604 
	C316.522858,197.985931 309.207275,191.109329 303.816650,182.957336 
	C296.032257,171.185349 289.355957,158.643936 282.736572,146.150192 
	C277.723663,136.688614 272.843628,126.831413 272.248291,115.996544 
	C271.681732,105.686058 273.400696,95.325912 279.300659,86.463211 
	C289.653748,70.911201 304.252716,62.556141 323.557495,62.112946 
	C324.299683,69.786621 324.589996,77.388199 324.511139,85.466370 
	C305.320770,85.440392 295.062042,100.174629 296.243134,114.282494 
	C297.526672,129.613968 306.170502,139.229614 324.002838,141.174988 
z"/>
<path fill="#303B3B" opacity="1.000000" stroke="none" 
	d="
M300.585022,305.107971 
	C300.564514,306.527679 300.544006,307.947418 300.548737,310.120911 
	C300.399902,312.251404 300.225861,313.628052 299.810669,315.241699 
	C293.946259,325.267975 285.037567,325.856567 277.712280,316.568970 
	C277.365692,314.838318 277.034760,313.460419 276.749939,311.690491 
	C276.536499,309.483368 276.276978,307.668304 275.986176,305.443970 
	C275.568268,302.708344 275.181641,300.381927 274.879639,297.616791 
	C272.812836,280.424072 270.676331,263.668182 268.502777,246.917084 
	C267.620392,240.116684 266.657349,233.326736 265.652435,225.955536 
	C269.543365,226.519348 272.474854,226.868744 275.378082,227.378906 
	C284.181030,228.925842 287.732239,226.013489 288.205048,216.768372 
	C289.221313,211.171173 291.566071,205.389618 290.282410,200.575516 
	C288.348816,193.323792 288.210571,186.227661 287.899872,178.960129 
	C287.787750,176.336792 286.852631,173.611053 285.720581,171.200943 
	C283.995819,167.528992 284.907349,165.041580 288.909515,163.993240 
	C289.273071,165.736618 289.636658,167.479996 289.749390,169.793015 
	C289.649292,171.234360 289.799988,172.106079 289.950684,172.977783 
	C290.296722,174.405518 290.642761,175.833237 290.762695,177.779968 
	C290.693237,178.866943 290.849823,179.434937 291.006439,180.002914 
	C291.332794,181.747101 291.659149,183.491287 291.760864,185.767090 
	C291.690857,186.865997 291.845459,187.433304 292.000061,188.000610 
	C296.644897,220.846542 298.644043,253.906296 299.945801,287.950195 
	C300.120941,294.291046 300.352966,299.699524 300.585022,305.107971 
z"/>
<path fill="#8B8D90" opacity="1.000000" stroke="none" 
	d="
M258.426758,411.167419 
	C261.470184,411.123932 264.397156,411.530457 268.145691,411.956757 
	C296.197083,416.243317 323.408905,420.630310 350.666138,424.714050 
	C360.719666,426.220306 370.529968,430.380402 381.010559,428.295197 
	C381.013031,429.380676 381.017365,430.104340 381.021667,430.828003 
	C370.128296,432.891205 359.313477,435.721252 348.324097,436.847137 
	C329.419037,438.784058 310.421509,440.109497 291.430420,440.797668 
	C281.284302,441.165314 271.070465,439.664215 260.674408,438.675903 
	C260.978180,436.998901 261.494720,435.652435 262.011261,434.305969 
	C269.817505,433.580750 272.841675,431.524658 272.938934,426.876373 
	C273.031555,422.449463 270.168884,420.697571 261.874725,419.982819 
	C255.516891,419.434937 259.089478,414.582825 258.426758,411.167419 
z"/>
<path fill="#F8FBFD" opacity="1.000000" stroke="none" 
	d="
M453.183350,358.027344 
	C451.464294,358.185181 449.682343,358.717773 448.036163,358.441437 
	C435.202118,356.287140 422.836609,355.468231 410.033722,360.563538 
	C392.341766,367.604553 373.902588,372.750671 355.878571,378.983490 
	C348.796906,381.432373 342.767090,378.289551 336.330139,377.120483 
	C336.222534,376.639435 336.114929,376.158386 336.007324,375.677368 
	C339.625732,373.983398 343.156433,372.061005 346.876831,370.632629 
	C370.423859,361.592468 394.059143,352.780487 417.559570,343.621735 
	C424.542114,340.900452 431.227997,338.652496 438.658051,343.003052 
	C439.045258,342.979858 439.515717,343.090424 439.877777,343.342621 
	C440.456055,343.855255 440.733124,343.975464 441.071045,343.955505 
	C443.632904,345.739075 446.194794,347.522644 448.876587,349.978760 
	C450.392151,353.109985 451.787750,355.568665 453.183350,358.027344 
z"/>
<path fill="#343E3D" opacity="1.000000" stroke="none" 
	d="
M288.806030,163.655762 
	C284.907349,165.041580 283.995819,167.528992 285.720581,171.200943 
	C286.852631,173.611053 287.787750,176.336792 287.899872,178.960129 
	C288.210571,186.227661 288.348816,193.323792 290.282410,200.575516 
	C291.566071,205.389618 289.221313,211.171173 287.984650,216.453278 
	C284.990997,200.947586 282.771088,185.459427 279.858398,170.102661 
	C279.110992,166.162155 276.177979,162.636169 274.036743,158.622498 
	C272.932220,157.897293 271.990753,157.548416 271.155609,157.028717 
	C265.421295,153.460327 259.076019,155.442581 253.001465,154.984497 
	C237.411499,150.636703 221.819214,146.297165 206.232727,141.936905 
	C200.344528,140.289688 194.469711,138.594650 188.185394,136.877914 
	C193.297211,134.249847 198.757141,131.533401 204.369553,129.180771 
	C205.646515,128.645477 208.046204,128.757721 208.921326,129.608521 
	C217.762772,138.204254 227.910736,138.096375 238.734985,134.667038 
	C240.041733,134.253036 241.786301,133.948120 242.924423,134.470978 
	C254.705276,139.883255 266.451416,145.377197 278.102142,151.063705 
	C283.277710,153.589813 286.777191,157.841644 288.806030,163.655762 
z"/>
<path fill="#BBDBDA" opacity="1.000000" stroke="none" 
	d="
M191.893936,383.981659 
	C191.951309,387.023621 192.008682,390.065613 191.599792,393.532593 
	C181.101151,397.853424 171.059250,401.725311 161.062607,405.710602 
	C160.521439,405.926331 160.358749,407.091461 160.019867,407.814636 
	C148.684235,402.747131 141.533630,393.634857 136.366974,382.805084 
	C135.458405,380.900635 136.066727,378.272552 136.199829,375.246552 
	C145.013657,375.874054 153.616928,377.147522 162.186829,378.615784 
	C172.104538,380.314972 181.992859,382.185516 191.893936,383.981659 
z"/>
<path fill="#343E3D" opacity="1.000000" stroke="none" 
	d="
M198.296494,285.851990 
	C196.268921,286.757629 194.241348,287.663300 192.038422,288.909485 
	C188.593750,288.128082 185.215652,287.237427 182.106323,285.775238 
	C180.784134,285.153442 179.420929,283.469025 179.103638,282.039520 
	C176.216522,269.032104 173.749908,255.929886 170.769531,242.945084 
	C168.313065,232.242737 163.707138,221.951416 165.011581,210.590347 
	C165.310547,207.986435 165.681610,205.390823 166.054138,202.357742 
	C179.099533,205.286835 179.315308,205.282043 179.623932,219.173752 
	C180.027023,237.317764 179.975067,255.471649 180.315262,273.617615 
	C180.360703,276.041046 181.555038,278.442932 182.929199,281.060303 
	C185.563690,281.558502 187.486343,281.851166 189.594009,282.389038 
	C190.173157,282.703674 190.567261,282.773102 191.202850,282.955261 
	C191.794601,283.084229 192.144897,283.100433 192.677094,283.451263 
	C194.239670,284.123383 195.620346,284.460846 197.228241,284.908997 
	C197.623947,285.018524 197.792435,285.017395 198.052048,285.222321 
	C198.143173,285.428345 198.296494,285.851990 198.296494,285.851990 
z"/>
<path fill="#898B8E" opacity="1.000000" stroke="none" 
	d="
M261.547913,434.222168 
	C261.494720,435.652435 260.978180,436.998901 260.249756,438.599365 
	C244.840775,438.059723 229.542999,438.381256 214.653503,434.350433 
	C208.252396,432.617584 201.764420,431.205719 195.131531,429.322601 
	C202.269028,429.051239 209.591095,429.086273 216.912674,429.166718 
	C221.082504,429.212524 222.442917,426.396301 222.685364,423.040833 
	C222.916321,419.844513 221.610901,416.226105 218.160324,416.394165 
	C211.044724,416.740784 211.491852,412.521790 212.388870,407.452881 
	C220.269119,407.686523 227.638779,408.348145 235.008453,409.009735 
	C235.018829,414.334686 235.018677,419.659668 235.042297,424.984558 
	C235.070938,431.434265 237.512009,433.900391 244.103470,434.012329 
	C249.762909,434.108429 255.424118,434.100372 261.547913,434.222168 
z"/>
<path fill="#F4FBFC" opacity="1.000000" stroke="none" 
	d="
M191.956207,383.543457 
	C181.992859,382.185516 172.104538,380.314972 162.186829,378.615784 
	C153.616928,377.147522 145.013657,375.874054 136.197861,374.811005 
	C135.401047,372.150452 134.831512,369.193329 134.873001,366.367065 
	C143.235825,367.919769 150.971741,369.436249 158.743225,370.740845 
	C169.763031,372.590759 180.809036,374.284668 191.843842,376.045258 
	C191.902054,378.398590 191.960266,380.751923 191.956207,383.543457 
z"/>
<path fill="#BFDCDB" opacity="1.000000" stroke="none" 
	d="
M191.616791,320.978699 
	C192.003571,327.703583 192.006409,334.407959 191.480072,341.574280 
	C180.821960,341.314362 170.691910,340.606873 160.567032,339.831879 
	C160.010849,339.789307 159.497681,339.184784 158.964508,338.841858 
	C161.220276,337.135132 163.294266,335.082306 165.764908,333.784729 
	C174.178772,329.365570 182.732513,325.212738 191.616791,320.978699 
z"/>
<path fill="#BFDCDB" opacity="1.000000" stroke="none" 
	d="
M191.880081,348.975464 
	C191.925552,350.708984 191.971024,352.442474 191.531006,354.587646 
	C187.951324,354.471863 184.822037,354.096039 181.769424,353.389069 
	C171.905243,351.104614 162.217758,350.458344 152.673218,356.003296 
	C149.922745,356.788727 147.523331,357.412781 144.795837,358.038574 
	C143.996231,358.423737 143.524704,358.807190 143.042953,359.153320 
	C143.032730,359.115997 143.103180,359.147949 142.717316,359.083069 
	C141.209824,358.302429 140.088181,357.586639 138.966553,356.870850 
	C143.363892,352.576416 147.761246,348.281982 152.954834,343.996979 
	C158.809021,344.601410 163.874542,345.138977 168.923172,345.804871 
	C176.581650,346.814941 184.228363,347.914124 191.880081,348.975464 
z"/>
<path fill="#9BA0A0" opacity="1.000000" stroke="none" 
	d="
M381.416412,430.877625 
	C381.017365,430.104340 381.013031,429.380676 381.317261,428.095886 
	C385.927399,426.114960 390.229034,424.695251 394.882385,423.219727 
	C403.488312,419.731995 411.742493,416.300049 420.348938,412.832672 
	C424.451782,410.846069 428.202332,408.894867 431.952881,406.943695 
	C437.034119,403.611633 442.115387,400.279572 447.748779,397.160309 
	C451.093811,398.158905 452.478882,399.893097 452.008545,402.877106 
	C432.741028,413.791016 412.448730,422.318695 391.297729,428.811188 
	C388.209961,429.759003 384.976959,430.233704 381.416412,430.877625 
z"/>
<path fill="#BFDCDB" opacity="1.000000" stroke="none" 
	d="
M191.932587,375.618652 
	C180.809036,374.284668 169.763031,372.590759 158.743225,370.740845 
	C150.971741,369.436249 143.235825,367.919769 135.225891,366.196472 
	C135.378448,364.343628 135.789139,362.792114 136.944916,361.164917 
	C140.515244,361.376587 143.340469,361.663940 146.387787,361.963074 
	C146.609879,361.974884 147.024719,362.135529 147.199020,362.364197 
	C147.923187,362.716339 148.473038,362.839844 149.437485,362.981476 
	C157.842896,364.317139 165.834671,365.628815 173.824203,366.954041 
	C179.851044,367.953735 185.875015,368.970703 191.900269,369.979980 
	C191.940628,371.717346 191.980988,373.454712 191.932587,375.618652 
z"/>
<path fill="#F4FBFC" opacity="1.000000" stroke="none" 
	d="
M160.351196,407.950012 
	C160.358749,407.091461 160.521439,405.926331 161.062607,405.710602 
	C171.059250,401.725311 181.101151,397.853424 191.525848,393.982849 
	C191.934372,396.691071 191.950546,399.374054 191.486008,402.487122 
	C184.893845,404.843384 178.746094,406.666168 172.703354,408.787994 
	C171.574203,409.184509 170.865952,410.779724 169.963455,411.821716 
	C166.869812,410.576263 163.776169,409.330811 160.351196,407.950012 
z"/>
<path fill="#F4FBFC" opacity="1.000000" stroke="none" 
	d="
M191.950562,348.545776 
	C184.228363,347.914124 176.581650,346.814941 168.923172,345.804871 
	C163.874542,345.138977 158.809021,344.601410 153.310486,343.989502 
	C154.695267,342.361938 156.520630,340.751251 158.655243,338.991180 
	C159.497681,339.184784 160.010849,339.789307 160.567032,339.831879 
	C170.691910,340.606873 180.821960,341.314362 191.397858,342.039124 
	C191.903549,344.066711 191.962311,346.091431 191.950562,348.545776 
z"/>
<path fill="#BBD5D5" opacity="1.000000" stroke="none" 
	d="
M170.186829,411.905396 
	C170.865952,410.779724 171.574203,409.184509 172.703354,408.787994 
	C178.746094,406.666168 184.893845,404.843384 191.395706,402.924500 
	C191.855835,407.298279 191.925537,411.664795 191.535049,416.490936 
	C184.343155,415.324799 177.611465,413.699036 170.879776,412.073242 
	C170.879776,412.073273 170.410202,411.989105 170.186829,411.905396 
z"/>
<path fill="#B0B3B5" opacity="1.000000" stroke="none" 
	d="
M455.904144,385.944061 
	C456.604156,380.269287 457.304199,374.594543 458.319214,368.317261 
	C460.397308,367.139984 462.160461,366.565216 463.923584,365.990417 
	C467.611664,374.163605 468.762451,382.422150 464.354858,390.662537 
	C462.640381,386.523102 459.587891,385.672638 455.904144,385.944061 
z"/>
<path fill="#A5A8AA" opacity="1.000000" stroke="none" 
	d="
M455.617432,386.113037 
	C459.587891,385.672638 462.640381,386.523102 464.008911,390.840637 
	C461.962372,396.729645 456.996765,399.442474 452.349976,402.840149 
	C452.478882,399.893097 451.093811,398.158905 448.082581,397.063171 
	C450.353088,393.262848 452.841919,389.772400 455.617432,386.113037 
z"/>
<path fill="#9BA0A0" opacity="1.000000" stroke="none" 
	d="
M170.933838,412.429443 
	C177.611465,413.699036 184.343155,415.324799 191.463882,416.947937 
	C191.899765,418.989075 191.946609,421.032837 191.992950,423.514252 
	C186.514404,421.588562 180.968567,419.366119 175.596802,416.781830 
	C173.828857,415.931305 172.511353,414.144440 170.933838,412.429443 
z"/>
<path fill="#BDC3C6" opacity="1.000000" stroke="none" 
	d="
M463.908997,365.645966 
	C462.160461,366.565216 460.397308,367.139984 458.313873,367.856018 
	C456.553131,364.822449 455.112701,361.647675 453.427826,358.250122 
	C451.787750,355.568665 450.392151,353.109985 449.022095,350.285217 
	C453.996582,355.046600 458.945496,360.174072 463.908997,365.645966 
z"/>
<path fill="#E3EEF0" opacity="1.000000" stroke="none" 
	d="
M323.909668,305.586243 
	C316.786560,305.646576 309.452545,305.325012 301.614594,304.756409 
	C301.110687,304.509338 300.993744,304.041962 300.993744,304.041962 
	C308.562073,304.429413 316.130402,304.816895 323.909668,305.586243 
z"/>
<path fill="#E3EEF0" opacity="1.000000" stroke="none" 
	d="
M146.165710,361.951294 
	C143.340469,361.663940 140.515244,361.376587 137.277313,361.026062 
	C137.349365,359.693146 137.834106,358.423370 138.642700,357.012238 
	C140.088181,357.586639 141.209824,358.302429 142.575836,359.392212 
	C143.017502,360.167938 143.112595,360.769653 143.431793,360.932739 
	C144.292038,361.372223 145.247833,361.624634 146.165710,361.951294 
z"/>
<path fill="#B0B3B5" opacity="1.000000" stroke="none" 
	d="
M300.952942,303.573975 
	C300.993744,304.041962 301.110687,304.509338 301.180908,304.739990 
	C301.251099,304.970612 300.923615,305.066986 300.754333,305.087463 
	C300.352966,299.699524 300.120941,294.291046 299.942413,288.413574 
	C300.301331,292.998383 300.606720,298.052185 300.952942,303.573975 
z"/>
<path fill="#F58904" opacity="1.000000" stroke="none" 
	d="
M330.370819,201.927765 
	C330.825043,201.037323 331.573059,200.056808 332.665161,199.076752 
	C332.227692,199.997375 331.446167,200.917542 330.370819,201.927765 
z"/>
<path fill="#343E3D" opacity="1.000000" stroke="none" 
	d="
M289.999451,172.607758 
	C289.799988,172.106079 289.649292,171.234360 289.746460,170.182617 
	C290.012299,170.747635 290.030243,171.492676 289.999451,172.607758 
z"/>
<path fill="#F58904" opacity="1.000000" stroke="none" 
	d="
M334.353821,197.935394 
	C334.454102,197.380615 334.834198,196.737015 335.520355,196.040466 
	C335.428833,196.607193 335.031189,197.226883 334.353821,197.935394 
z"/>
<path fill="#F58904" opacity="1.000000" stroke="none" 
	d="
M328.377106,203.963165 
	C328.526489,203.411926 328.943115,202.757156 329.689514,202.089203 
	C329.560974,202.670563 329.102661,203.265106 328.377106,203.963165 
z"/>
<path fill="#F58904" opacity="1.000000" stroke="none" 
	d="
M332.952667,62.639275 
	C332.244812,62.853535 331.377350,62.751984 330.271820,62.420753 
	C330.953522,62.235203 331.873291,62.279339 332.952667,62.639275 
z"/>
<path fill="#343E3D" opacity="1.000000" stroke="none" 
	d="
M191.962341,426.320801 
	C192.307190,426.518982 192.624069,427.043610 192.927734,427.895660 
	C192.587814,427.697815 192.261093,427.172546 191.962341,426.320801 
z"/>
<path fill="#343E3D" opacity="1.000000" stroke="none" 
	d="
M292.034241,187.668640 
	C291.845459,187.433304 291.690857,186.865997 291.759766,186.152847 
	C292.011627,186.450226 292.040039,186.893463 292.034241,187.668640 
z"/>
<path fill="#343E3D" opacity="1.000000" stroke="none" 
	d="
M291.038391,179.670319 
	C290.849823,179.434937 290.693237,178.866943 290.760559,178.152695 
	C291.013123,178.450195 291.041718,178.893967 291.038391,179.670319 
z"/>
<path fill="#F58904" opacity="1.000000" stroke="none" 
	d="
M333.314331,198.962708 
	C333.122955,198.678436 333.293427,198.416718 333.804443,198.146530 
	C333.873108,198.345123 333.716797,198.627518 333.314331,198.962708 
z"/>
<path fill="#BBDBDA" opacity="1.000000" stroke="none" 
	d="
M441.007507,343.682770 
	C440.733124,343.975464 440.456055,343.855255 440.112885,343.398499 
	C440.305298,343.271454 440.624634,343.340759 441.007507,343.682770 
z"/>
<path fill="#F77C01" opacity="1.000000" stroke="none" 
	d="
M192.495178,283.116638 
	C192.144897,283.100433 191.794601,283.084229 190.999542,282.740173 
	C190.172836,282.322845 189.790909,282.233337 189.408981,282.143829 
	C187.486343,281.851166 185.563690,281.558502 183.322235,281.078979 
	C182.969650,278.731812 183.468872,276.383331 182.786911,274.451874 
	C181.517212,270.855865 182.305573,268.408569 185.371246,266.339874 
	C188.836472,264.001526 192.467850,263.169312 196.005341,265.706818 
	C204.593323,271.867249 214.314911,274.658173 224.573380,276.428436 
	C234.088272,278.070465 237.614349,275.700867 237.948242,265.928436 
	C238.192276,258.785919 237.838135,251.624161 238.029938,244.478470 
	C238.616928,222.609085 239.306931,200.742264 240.036224,178.877090 
	C240.173721,174.755264 240.597305,170.637299 241.028641,166.532242 
	C241.732529,159.833145 247.105698,158.051331 252.624710,156.415497 
	C252.650848,157.658630 252.330185,158.575897 251.975876,159.479965 
	C250.323898,163.695267 247.386948,167.854980 247.212921,172.128372 
	C246.131393,198.686340 245.628189,225.268616 245.026443,251.844925 
	C244.856781,259.338928 245.097748,266.841614 244.973328,274.337402 
	C244.833160,282.781158 239.485199,289.671906 232.500229,289.907440 
	C224.995010,290.160583 217.453857,290.373383 210.146042,287.671448 
	C207.260742,286.604614 204.000778,286.551147 200.670959,286.039490 
	C200.430527,286.042694 200.004715,285.818054 199.809967,285.606201 
	C199.063782,285.268341 198.512360,285.142334 197.960922,285.016296 
	C197.792435,285.017395 197.623947,285.018524 197.177643,284.620148 
	C195.431595,283.852600 193.963394,283.484619 192.495178,283.116638 
z"/>
<path fill="#F47803" opacity="1.000000" stroke="none" 
	d="
M200.911407,286.036285 
	C204.000778,286.551147 207.260742,286.604614 210.146042,287.671448 
	C217.453857,290.373383 224.995010,290.160583 232.500229,289.907440 
	C239.485199,289.671906 244.833160,282.781158 244.973328,274.337402 
	C245.097748,266.841614 244.856781,259.338928 245.026443,251.844925 
	C245.628189,225.268616 246.131393,198.686340 247.212921,172.128372 
	C247.386948,167.854980 250.323898,163.695267 251.975876,159.479965 
	C252.330185,158.575897 252.650848,157.658630 252.987350,156.377441 
	C252.991058,155.836945 252.994415,155.666489 252.999634,155.240265 
	C259.076019,155.442581 265.421295,153.460327 271.155609,157.028717 
	C271.990753,157.548416 272.932220,157.897293 273.611603,158.646942 
	C272.413483,158.862213 271.372040,158.926178 270.451843,158.622528 
	C262.639465,156.044601 257.260864,157.525131 254.054077,164.808472 
	C251.994385,169.486496 251.314911,175.027985 251.114105,180.224823 
	C250.197159,203.953644 249.602524,227.695892 249.034180,251.436707 
	C248.822922,260.260956 249.023102,269.094635 248.979141,277.923737 
	C248.970947,279.570587 248.751862,281.223999 248.529877,282.860840 
	C247.710663,288.901031 246.849411,294.935577 246.003952,300.972229 
	C233.325333,296.951019 220.646713,292.929810 207.380341,288.679260 
	C206.204529,288.330444 205.616486,288.210938 205.028458,288.091461 
	C205.028458,288.091461 204.649170,287.884705 204.225281,287.665649 
	C203.210556,287.330719 202.619720,287.214874 202.028900,287.098999 
	C202.028900,287.098999 201.647949,286.891693 201.354752,286.682343 
	C201.061554,286.472992 200.911407,286.036285 200.911407,286.036285 
z"/>
<path fill="#F8FCFD" opacity="1.000000" stroke="none" 
	d="
M409.145233,330.891602 
	C410.957764,331.370483 412.770264,331.849365 414.837158,332.952515 
	C415.392914,335.034149 415.694275,336.491547 415.995667,337.948944 
	C392.664825,346.631165 369.313568,355.259033 346.014069,364.024414 
	C337.618866,367.182709 329.484894,371.104401 320.954590,373.801025 
	C317.434875,374.913696 313.148346,374.015686 309.275238,373.523376 
	C292.682495,371.414124 276.113892,369.115295 259.139526,366.873230 
	C258.643372,365.220673 258.544189,363.580505 258.947327,361.496216 
	C273.025848,362.883942 286.593933,364.779602 300.181824,366.520477 
	C306.881287,367.378815 313.747223,370.256836 321.467804,364.796509 
	C299.763336,361.356354 279.236389,358.102844 258.709473,354.849335 
	C258.639801,350.244598 258.570160,345.639893 259.015015,340.588074 
	C263.859283,338.743378 268.189026,337.345795 272.518768,335.948242 
	C272.489349,335.515961 272.459930,335.083710 272.430511,334.651459 
	C267.833008,333.721710 263.235535,332.791931 258.638000,331.862152 
	C258.563934,330.221832 258.489838,328.581512 258.919739,326.506500 
	C266.991669,326.897827 274.564514,327.681915 282.126556,328.559082 
	C295.913452,330.158234 309.626740,332.946381 323.137939,326.318237 
	C327.123993,324.362823 332.240723,324.712250 336.839294,324.005463 
	C336.984955,324.665100 337.130585,325.324768 337.276215,325.984406 
	C316.735352,332.978027 296.194489,339.971649 275.653625,346.965271 
	C279.623016,348.349487 283.563141,349.368958 287.121643,348.606720 
	C293.251404,347.293762 299.184814,344.988617 305.127380,342.892151 
	C320.017365,337.639282 334.857635,332.245270 349.746918,326.990295 
	C351.073242,326.522217 352.709076,326.250244 354.036407,326.570374 
	C368.710999,330.109711 383.318481,333.936646 398.038055,337.271057 
	C400.468842,337.821686 403.351868,336.376038 406.025879,335.852966 
	C405.683929,335.234711 405.341980,334.616486 405.052246,333.660400 
	C406.451385,332.512268 407.798309,331.701935 409.145233,330.891602 
z"/>
<path fill="#F86E01" opacity="1.000000" stroke="none" 
	d="
M246.147369,301.074402 
	C246.849411,294.935577 247.710663,288.901031 248.529877,282.860840 
	C248.751862,281.223999 248.970947,279.570587 248.979141,277.923737 
	C249.023102,269.094635 248.822922,260.260956 249.034180,251.436707 
	C249.602524,227.695892 250.197159,203.953644 251.114105,180.224823 
	C251.314911,175.027985 251.994385,169.486496 254.054077,164.808472 
	C257.260864,157.525131 262.639465,156.044601 270.451843,158.622528 
	C271.372040,158.926178 272.413483,158.862213 273.823914,158.944199 
	C276.177979,162.636169 279.110992,166.162155 279.858398,170.102661 
	C282.771088,185.459427 284.990997,200.947586 287.688965,216.701981 
	C287.732239,226.013489 284.181030,228.925842 275.378082,227.378906 
	C272.474854,226.868744 269.543365,226.519348 265.652435,225.955536 
	C266.657349,233.326736 267.620392,240.116684 268.502777,246.917084 
	C270.676331,263.668182 272.812836,280.424072 274.499634,297.579163 
	C270.043091,299.012299 266.051178,300.044342 261.874573,300.822510 
	C260.792603,300.936340 259.895264,301.304047 258.736816,301.757446 
	C258.309021,301.919250 258.142395,301.995361 257.975739,302.071442 
	C257.794525,301.987091 257.613312,301.902740 256.817261,301.513489 
	C253.014053,301.177216 249.825729,301.145874 246.637421,301.114532 
	C246.637421,301.114532 246.290771,301.176544 246.147369,301.074402 
z"/>
<path fill="#BDDADA" opacity="1.000000" stroke="none" 
	d="
M405.000000,333.998230 
	C405.341980,334.616486 405.683929,335.234711 406.025879,335.852966 
	C403.351868,336.376038 400.468842,337.821686 398.038055,337.271057 
	C383.318481,333.936646 368.710999,330.109711 354.036407,326.570374 
	C352.709076,326.250244 351.073242,326.522217 349.746918,326.990295 
	C334.857635,332.245270 320.017365,337.639282 305.127380,342.892151 
	C299.184814,344.988617 293.251404,347.293762 287.121643,348.606720 
	C283.563141,349.368958 279.623016,348.349487 275.653625,346.965271 
	C296.194489,339.971649 316.735352,332.978027 337.276215,325.984406 
	C337.130585,325.324768 336.984955,324.665100 336.839294,324.005463 
	C332.240723,324.712250 327.123993,324.362823 323.137939,326.318237 
	C309.626740,332.946381 295.913452,330.158234 282.126556,328.559082 
	C274.564514,327.681915 266.991669,326.897827 259.024506,326.107483 
	C258.534515,324.672394 258.443726,323.201630 258.850098,321.293457 
	C265.474152,319.544586 271.601044,318.233185 277.727966,316.921753 
	C285.037567,325.856567 293.946259,325.267975 300.236786,315.242584 
	C305.641724,315.660034 310.387634,316.259247 315.115570,316.976868 
	C331.907684,319.525574 348.768372,321.712677 365.458221,324.815826 
	C378.748474,327.286896 391.827301,330.894928 405.000000,333.998230 
z"/>
<path fill="#F8FCFD" opacity="1.000000" stroke="none" 
	d="
M258.521790,376.552185 
	C267.470062,370.810638 276.381409,375.342804 285.156189,376.221924 
	C296.166992,377.325043 307.069885,379.505035 319.334045,381.426239 
	C316.118256,382.981323 313.942596,384.135406 311.688385,385.107178 
	C295.517273,392.078644 279.335052,399.024475 263.138153,405.935760 
	C261.949615,406.442902 260.618286,406.615479 259.000183,406.919006 
	C258.569977,396.930664 258.493011,386.966858 258.521790,376.552185 
z"/>
<path fill="#F8FBFD" opacity="1.000000" stroke="none" 
	d="
M191.961182,369.527832 
	C185.875015,368.970703 179.851044,367.953735 173.824203,366.954041 
	C165.834671,365.628815 157.842896,364.317139 149.430145,362.779175 
	C149.008224,362.558716 149.011780,362.153107 149.384445,362.082733 
	C151.191757,361.143707 152.823395,360.482635 154.012115,359.354797 
	C155.561890,357.884308 156.014191,356.260925 153.024261,355.841949 
	C162.217758,350.458344 171.905243,351.104614 181.769424,353.389069 
	C184.822037,354.096039 187.951324,354.471863 191.455994,355.015503 
	C191.918121,355.755219 191.969772,356.478760 191.739532,357.644470 
	C191.629761,358.413971 191.801880,358.741241 191.973984,359.068542 
	C191.990021,362.404266 192.006042,365.739960 191.961182,369.527832 
M186.832458,359.306458 
	C183.611298,359.009766 180.390137,358.713074 177.168991,358.416382 
	C176.907135,359.312683 176.645279,360.208984 176.383438,361.105286 
	C178.250610,362.069153 180.101593,363.764984 181.989166,363.806732 
	C184.217209,363.855988 187.508514,363.833832 186.832458,359.306458 
z"/>
<path fill="#BADBDA" opacity="1.000000" stroke="none" 
	d="
M211.998077,397.993042 
	C211.958481,390.959991 211.918869,383.926910 212.413116,376.440918 
	C220.496948,378.000488 227.665726,375.902039 234.848724,373.956970 
	C234.909851,379.675903 234.970993,385.394806 234.569580,391.554382 
	C231.625702,392.198822 229.017120,391.984406 226.689285,392.692719 
	C221.715149,394.206207 216.886398,396.197510 211.998077,397.993042 
z"/>
<path fill="#F7FBFC" opacity="1.000000" stroke="none" 
	d="
M234.932114,373.502075 
	C227.665726,375.902039 220.496948,378.000488 212.517761,375.980652 
	C212.099670,369.801910 212.110794,363.630493 212.821808,357.232941 
	C220.576111,358.037811 227.630524,359.068817 234.684921,360.099854 
	C234.795105,364.415649 234.905304,368.731415 234.932114,373.502075 
z"/>
<path fill="#BFDCDB" opacity="1.000000" stroke="none" 
	d="
M258.559509,355.280579 
	C279.236389,358.102844 299.763336,361.356354 321.467804,364.796509 
	C313.747223,370.256836 306.881287,367.378815 300.181824,366.520477 
	C286.593933,364.779602 273.025848,362.883942 259.053101,361.096497 
	C258.574249,359.331207 258.491882,357.521515 258.559509,355.280579 
z"/>
<path fill="#F8FBFD" opacity="1.000000" stroke="none" 
	d="
M211.908417,398.435791 
	C216.886398,396.197510 221.715149,394.206207 226.689285,392.692719 
	C229.017120,391.984406 231.625702,392.198822 234.482178,392.017822 
	C234.921066,397.385101 234.984818,402.729584 235.028503,408.541901 
	C227.638779,408.348145 220.269119,407.686523 212.460266,407.001099 
	C211.953644,404.277710 211.886185,401.578094 211.908417,398.435791 
z"/>
<path fill="#F7FBFC" opacity="1.000000" stroke="none" 
	d="
M233.870102,343.044525 
	C234.146790,346.498138 234.423477,349.951721 234.166748,353.811035 
	C226.819336,353.125122 220.005325,352.033569 213.191315,350.942017 
	C213.486404,347.600433 213.781509,344.258881 214.568558,340.485168 
	C221.330383,341.050201 227.600235,342.047363 233.870102,343.044525 
z"/>
<path fill="#F7FBFC" opacity="1.000000" stroke="none" 
	d="
M214.542603,337.872864 
	C214.693893,335.202850 214.845200,332.532867 215.461914,329.413940 
	C221.574402,327.988647 227.221466,327.012268 232.868530,326.035889 
	C232.993637,328.063538 233.118729,330.091125 232.823944,332.697418 
	C226.450241,334.808350 220.496429,336.340607 214.542603,337.872864 
z"/>
<path fill="#BBD5D5" opacity="1.000000" stroke="none" 
	d="
M213.091125,351.352295 
	C220.005325,352.033569 226.819336,353.125122 234.121216,354.291199 
	C234.693817,356.035583 234.778534,357.705536 234.774078,359.737671 
	C227.630524,359.068817 220.576111,358.037811 213.107040,356.908630 
	C212.791885,355.127838 212.891418,353.445221 213.091125,351.352295 
z"/>
<path fill="#BBD5D5" opacity="1.000000" stroke="none" 
	d="
M276.017456,305.853210 
	C276.276978,307.668304 276.536499,309.483368 276.370667,311.704895 
	C270.192078,313.448120 264.438843,314.784943 258.685638,316.121765 
	C258.524780,313.752014 258.363892,311.382233 258.445618,308.544861 
	C258.688232,308.077240 259.124420,307.903992 259.310669,307.939453 
	C259.496948,307.974945 259.876038,307.967010 260.320679,307.984253 
	C265.205078,307.288940 269.644897,306.576385 274.406281,305.905212 
	C275.157745,305.915436 275.587585,305.884308 276.017456,305.853210 
z"/>
<path fill="#E3EEF0" opacity="1.000000" stroke="none" 
	d="
M215.439407,323.911499 
	C215.547546,315.284851 221.154648,311.187256 228.612411,314.605774 
	C230.232071,315.348206 231.155579,317.609344 231.968826,319.699738 
	C226.171753,321.456146 220.805588,322.683838 215.439407,323.911499 
z"/>
<path fill="#BBD5D5" opacity="1.000000" stroke="none" 
	d="
M214.368622,338.213470 
	C220.496429,336.340607 226.450241,334.808350 232.758865,333.128601 
	C233.411331,336.041626 233.708984,339.102173 233.938354,342.603638 
	C227.600235,342.047363 221.330383,341.050201 214.657578,340.061188 
	C214.234650,339.564240 214.214645,339.059143 214.368622,338.213470 
z"/>
<path fill="#F4FBFC" opacity="1.000000" stroke="none" 
	d="
M258.561340,316.505737 
	C264.438843,314.784943 270.192078,313.448120 276.324585,312.096924 
	C277.034760,313.460419 277.365692,314.838318 277.712280,316.568970 
	C271.601044,318.233185 265.474152,319.544586 258.992310,320.871460 
	C258.570618,319.554474 258.503815,318.222107 258.561340,316.505737 
z"/>
<path fill="#BBD5D5" opacity="1.000000" stroke="none" 
	d="
M215.311371,324.323914 
	C220.805588,322.683838 226.171753,321.456146 231.911987,320.086304 
	C232.520462,321.714539 232.754913,323.484955 232.928940,325.645630 
	C227.221466,327.012268 221.574402,327.988647 215.539429,329.002594 
	C215.162140,327.605560 215.172745,326.170959 215.311371,324.323914 
z"/>
<path fill="#BFDCDB" opacity="1.000000" stroke="none" 
	d="
M258.498230,332.309174 
	C263.235535,332.791931 267.833008,333.721710 272.430511,334.651459 
	C272.459930,335.083710 272.489349,335.515961 272.518768,335.948242 
	C268.189026,337.345795 263.859283,338.743378 259.182556,340.164734 
	C258.676514,337.711060 258.517456,335.233643 258.498230,332.309174 
z"/>
<path fill="#F47803" opacity="1.000000" stroke="none" 
	d="
M246.925690,301.373901 
	C249.825729,301.145874 253.014053,301.177216 256.534546,301.413696 
	C253.649124,301.623627 250.431534,301.628448 246.925690,301.373901 
z"/>
<path fill="#8B8D90" opacity="1.000000" stroke="none" 
	d="
M259.124420,307.903992 
	C259.124420,307.903992 258.688232,308.077240 258.454590,308.098083 
	C258.133514,306.391174 258.046082,304.663422 257.967163,302.503540 
	C258.142395,301.995361 258.309021,301.919250 258.982056,301.903656 
	C259.666016,302.032166 259.843597,302.100159 259.859497,302.503174 
	C259.506683,304.526825 259.315552,306.215393 259.124420,307.903992 
z"/>
<path fill="#F47803" opacity="1.000000" stroke="none" 
	d="
M198.052048,285.222321 
	C198.512360,285.142334 199.063782,285.268341 199.566650,285.679291 
	C199.354691,286.008575 199.191269,286.052948 199.027847,286.097321 
	C199.027847,286.097321 198.695694,285.872559 198.496094,285.862274 
	C198.296494,285.851990 198.143173,285.428345 198.052048,285.222321 
z"/>
<path fill="#343E3D" opacity="1.000000" stroke="none" 
	d="
M199.226166,286.334412 
	C199.191269,286.052948 199.354691,286.008575 199.761414,285.891113 
	C200.004715,285.818054 200.430527,286.042694 200.670959,286.039490 
	C200.911407,286.036285 201.061554,286.472992 201.138062,286.690796 
	C200.617889,286.796234 200.021179,286.683838 199.226166,286.334412 
z"/>
<path fill="#343E3D" opacity="1.000000" stroke="none" 
	d="
M202.227692,287.335571 
	C202.619720,287.214874 203.210556,287.330719 204.009521,287.675720 
	C203.620605,287.793915 203.023544,287.683044 202.227692,287.335571 
z"/>
<path fill="#343E3D" opacity="1.000000" stroke="none" 
	d="
M205.225555,288.329224 
	C205.616486,288.210938 206.204529,288.330444 207.001434,288.677124 
	C206.614426,288.791870 206.018539,288.679413 205.225555,288.329224 
z"/>
<path fill="#343E3D" opacity="1.000000" stroke="none" 
	d="
M191.982269,358.783600 
	C191.801880,358.741241 191.629761,358.413971 191.715118,358.007751 
	C191.978577,358.118774 191.984558,358.308716 191.982269,358.783600 
z"/>
<path fill="#F7FBFC" opacity="1.000000" stroke="none" 
	d="
M431.720459,406.667999 
	C428.202332,408.894867 424.451782,410.846069 420.104156,412.568939 
	C418.083527,411.897736 416.681854,411.359863 415.233124,411.026154 
	C395.072510,406.382294 374.914703,401.725281 354.732330,397.177307 
	C350.552826,396.235504 345.919220,394.322968 342.115021,395.292114 
	C332.743591,397.679474 323.732574,401.481903 313.313019,405.161621 
	C315.916565,406.075043 316.956909,406.589386 318.055756,406.803284 
	C335.750763,410.247772 353.486847,413.491455 371.138641,417.143127 
	C379.021484,418.773834 386.738403,421.206696 394.530640,423.275513 
	C390.229034,424.695251 385.927399,426.114960 381.319092,427.734009 
	C370.529968,430.380402 360.719666,426.220306 350.666138,424.714050 
	C323.408905,420.630310 296.197083,416.243317 268.555054,411.909119 
	C288.848724,402.863892 309.459167,393.651581 330.358124,385.148315 
	C333.684418,383.794891 338.402313,385.196014 342.315491,386.057007 
	C371.124939,392.395966 399.894135,398.917908 428.671326,405.402924 
	C429.635559,405.620209 430.550262,406.057556 431.720459,406.667999 
z"/>
<path fill="#F4FBFC" opacity="1.000000" stroke="none" 
	d="
M405.052246,333.660400 
	C391.827301,330.894928 378.748474,327.286896 365.458221,324.815826 
	C348.768372,321.712677 331.907684,319.525574 315.115570,316.976868 
	C310.387634,316.259247 305.641724,315.660034 300.477905,315.005615 
	C300.225861,313.628052 300.399902,312.251404 300.751282,310.496826 
	C312.883575,307.169586 324.328522,311.393402 335.707520,313.428345 
	C358.180878,317.447357 380.382324,322.993683 402.676178,327.997711 
	C404.742828,328.461548 406.665955,329.564636 408.900482,330.631287 
	C407.798309,331.701935 406.451385,332.512268 405.052246,333.660400 
z"/>
<path fill="#F4FBFC" opacity="1.000000" stroke="none" 
	d="
M416.363068,337.926483 
	C415.694275,336.491547 415.392914,335.034149 415.090027,333.191681 
	C417.744171,333.436646 420.399841,334.066681 423.055511,334.696686 
	C423.087494,335.036469 423.119507,335.376251 423.151489,335.716034 
	C421.011139,336.445343 418.870819,337.174683 416.363068,337.926483 
z"/>
<path fill="#000000" opacity="1.000000" stroke="none" 
	d="
M324.394470,141.102051 
	C306.170502,139.229614 297.526672,129.613968 296.243134,114.282494 
	C295.062042,100.174629 305.320770,85.440392 324.583221,85.866562 
	C340.942352,86.170937 352.948853,98.481339 352.083710,114.187035 
	C351.574677,123.428162 343.336823,138.599792 330.739441,139.104141 
	C328.732513,139.184479 326.769440,140.359955 324.394470,141.102051 
z"/>
<path fill="#000000" opacity="1.000000" stroke="none" 
	d="
M259.310669,307.939453 
	C259.315552,306.215393 259.506683,304.526825 260.160950,302.419800 
	C261.102478,301.693085 261.580841,301.384735 262.059235,301.076416 
	C266.051178,300.044342 270.043091,299.012299 274.415039,298.017883 
	C275.181641,300.381927 275.568268,302.708344 275.986176,305.443970 
	C275.587585,305.884308 275.157745,305.915436 274.197632,305.554901 
	C269.070282,306.097839 264.473145,307.032440 259.876038,307.967010 
	C259.876038,307.967010 259.496948,307.974945 259.310669,307.939453 
z"/>
<path fill="#F47803" opacity="1.000000" stroke="none" 
	d="
M192.677094,283.451263 
	C193.963394,283.484619 195.431595,283.852600 196.950424,284.509460 
	C195.620346,284.460846 194.239670,284.123383 192.677094,283.451263 
z"/>
<path fill="#F47803" opacity="1.000000" stroke="none" 
	d="
M189.594009,282.389038 
	C189.790909,282.233337 190.172836,282.322845 190.758072,282.627441 
	C190.567261,282.773102 190.173157,282.703674 189.594009,282.389038 
z"/>
<path fill="#000000" opacity="1.000000" stroke="none" 
	d="
M152.673218,356.003296 
	C156.014191,356.260925 155.561890,357.884308 154.012115,359.354797 
	C152.823395,360.482635 151.191757,361.143707 149.057281,362.004120 
	C147.913208,362.042419 147.468964,362.088959 147.024719,362.135529 
	C147.024719,362.135529 146.609879,361.974884 146.387787,361.963074 
	C145.247833,361.624634 144.292038,361.372223 143.431793,360.932739 
	C143.112595,360.769653 143.017502,360.167938 142.961700,359.457092 
	C143.103180,359.147949 143.032730,359.115997 143.361588,359.076233 
	C144.168259,358.703247 144.646072,358.370026 145.123901,358.036804 
	C147.523331,357.412781 149.922745,356.788727 152.673218,356.003296 
z"/>
<path fill="#E3EEF0" opacity="1.000000" stroke="none" 
	d="
M144.795822,358.038574 
	C144.646072,358.370026 144.168259,358.703247 143.371811,359.113556 
	C143.524704,358.807190 143.996231,358.423737 144.795822,358.038574 
z"/>
<path fill="#BADBDA" opacity="1.000000" stroke="none" 
	d="
M394.882385,423.219727 
	C386.738403,421.206696 379.021484,418.773834 371.138641,417.143127 
	C353.486847,413.491455 335.750763,410.247772 318.055756,406.803284 
	C316.956909,406.589386 315.916565,406.075043 313.313019,405.161621 
	C323.732574,401.481903 332.743591,397.679474 342.115021,395.292114 
	C345.919220,394.322968 350.552826,396.235504 354.732330,397.177307 
	C374.914703,401.725281 395.072510,406.382294 415.233124,411.026154 
	C416.681854,411.359863 418.083527,411.897736 419.751862,412.604370 
	C411.742493,416.300049 403.488312,419.731995 394.882385,423.219727 
z"/>
<path fill="#E3EEF0" opacity="1.000000" stroke="none" 
	d="
M147.199020,362.364197 
	C147.468964,362.088959 147.913208,362.042419 148.684616,362.074493 
	C149.011780,362.153107 149.008224,362.558716 149.015564,362.761017 
	C148.473038,362.839844 147.923187,362.716339 147.199020,362.364197 
z"/>
<path fill="#F47803" opacity="1.000000" stroke="none" 
	d="
M261.874573,300.822510 
	C261.580841,301.384735 261.102478,301.693085 260.322632,302.084778 
	C259.843597,302.100159 259.666016,302.032166 259.243164,301.817993 
	C259.895264,301.304047 260.792603,300.936340 261.874573,300.822510 
z"/>
<path fill="#000000" opacity="1.000000" stroke="none" 
	d="
M187.095642,359.611816 
	C187.508514,363.833832 184.217209,363.855988 181.989166,363.806732 
	C180.101593,363.764984 178.250610,362.069153 176.383438,361.105286 
	C176.645279,360.208984 176.907135,359.312683 177.168991,358.416382 
	C180.390137,358.713074 183.611298,359.009766 187.095642,359.611816 
z"/>
<path fill="#E3EEF0" opacity="1.000000" stroke="none" 
	d="
M260.320679,307.984253 
	C264.473145,307.032440 269.070282,306.097839 273.876038,305.513550 
	C269.644897,306.576385 265.205078,307.288940 260.320679,307.984253 
z"/>
</svg>